<?xml version="1.0" standalone="no"?>
<!DOCTYPE svg
        PUBLIC '-//W3C//DTD SVG 20010904//EN'
        'http://www.w3.org/TR/2001/REC-SVG-20010904/DTD/svg10.dtd'>
<svg height="512.000000pt" preserveAspectRatio="xMidYMid meet" version="1.0" viewBox="0 0 512.000000 512.000000"
     width="512.000000pt" xmlns="http://www.w3.org/2000/svg">
    <g fill="#000000" stroke="none" transform="translate(0.000000,512.000000) scale(0.100000,-0.100000)">
        <path d="M415 5110 c-183 -38 -330 -170 -391 -350 -18 -53 -19 -134 -19 -2200 0 -2066 1 -2147 19 -2200 52 -154 168 -274 322 -332 l59 -23 2155 0 2155 0 59 23 c154 58 270 178 322 332 18 53 19 134 19 2200 0 2066 -1 2147 -19 2200 -52 154 -168 274 -322 332 l-59 23 -2130 1 c-1172 1 -2148 -2 -2170 -6z m1198 -994 c67 -28 107 -93 107 -171 0 -55 -14 -92 -48 -129 -37 -39 -81 -56 -149 -56 -125 1 -204 93 -187 218 9 58 41 103 94 130 51 26 133 30 183 8z m2161 -769 c223 -83 349 -287 386 -629 53 -500 -87 -901 -361 -1031 -94 -45 -155 -57 -281 -57 -161 0 -283 42 -385 134 -28 25 -54 46 -57 46 -3 0 -6 -179 -6 -398 l0 -399 -127 -16 c-71 -8 -131 -12 -136 -8 -4 4 -6 536 -5 1182 l3 1174 115 0 115 0 11 -110 c7 -60 12 -111 13 -112 1 -1 36 33 79 75 85 85 167 135 272 164 96 27 270 20 364 -15z m-2034 -732 l0 -735 235 0 235 0 0 -110 0 -110 -630 0 -631 0 3 108 3 107 258 3 257 2 0 625 0 625 -250 0 -250 0 0 110 0 110 385 0 385 0 0 -735z"/>
        <path d="M3395 3151 c-86 -22 -199 -105 -281 -205 l-44 -53 0 -416 0 -416 56 -60 c100 -109 222 -158 365 -148 263 18 389 232 389 662 0 327 -76 537 -224 612 -42 22 -67 27 -141 29 -49 2 -103 -1 -120 -5z"/>
    </g>
</svg>
